<svg xmlns="http://www.w3.org/2000/svg" width="100" height="120" viewBox="0 0 100 120">
  <polygon points="12,68 50,88 88,68 88,82 50,102 12,82" fill="#7a2fbf"></polygon>
  <path d="M25,32 L25,48 Q25,57 34,57 L45.5,57 L45.5,49 L37.5,49 Q34,49 34,45 L34,32 Z" fill="#ff9130"></path>
  <path d="M75,32 L75,48 Q75,57 66,57 L54.5,57 L54.5,49 L62.5,49 Q66,49 66,45 L66,32 Z" fill="#ff9130"></path>
  <rect x="45.5" y="30" width="9" height="76" fill="#ff9130"></rect>
  <polygon points="45.5,106 54.5,106 50,116" fill="#ff9130"></polygon>
  <polygon points="29.5,8 36.5,23 34,21 34,34 25,34 25,21 22.5,23" fill="#ff9130"></polygon>
  <polygon points="50,8 57,23 54.5,21 54.5,34 45.5,34 45.5,21 43,23" fill="#ff9130"></polygon>
  <polygon points="70.5,8 77.5,23 75,21 75,34 66,34 66,21 63.5,23" fill="#ff9130"></polygon>
</svg>
